<svg height="512pt" viewBox="-43 0 512 512" width="512pt" xmlns="http://www.w3.org/2000/svg"><path d="m64.800781 42.667969h361.867188v-42.667969h-362.667969c-35.199219 0-63.734375 28.535156-64 63.734375v384.265625c0 35.199219 28.800781 64 64 64h341.332031c11.734375 0 21.335938-9.601562 21.335938-21.332031v-405.335938h-106.667969v102.132813c0 9.335937-11.734375 14.136718-18.132812 7.46875l-24.535157-24.265625-24.53125 24.53125c-6.667969 6.667969-18.132812 1.867187-18.132812-7.464844v-102.402344h-170.667969c-11.734375 0-21.332031-9.597656-21.332031-21.332031 0-.535156 0-1.066406 0-1.332031 1.066406-11.46875 10.664062-20.269531 22.132812-20zm63.199219 256h170.667969v42.664062h-170.667969zm0 85.332031h170.667969v42.667969h-170.667969zm0 0"/></svg>