<svg height="512pt" viewBox="0 0 512 512" width="512pt" xmlns="http://www.w3.org/2000/svg"><path d="m256 211c57.890625 0 105-47.109375 105-105s-47.109375-106-105-106-105 48.109375-105 106 47.109375 105 105 105zm29.972656-90c8.285156 0 15 6.714844 15 15s-6.714844 15-15 15-15-6.714844-15-15 6.714844-15 15-15zm-60 0c8.285156 0 15 6.714844 15 15s-6.714844 15-15 15-15-6.714844-15-15 6.714844-15 15-15zm0 0"/><path d="m31 376c16.570312 0 30-13.429688 30-30v-30c0-16.570312-13.429688-30-30-30s-31 13.429688-31 30v30c0 16.570312 14.429688 30 31 30zm0 0"/><path d="m482 286c-16.570312 0-30 13.429688-30 30v30c0 16.570312 13.429688 30 30 30s30-13.429688 30-30v-30c0-16.570312-13.429688-30-30-30zm0 0"/><path d="m241 241h30v271h-30zm0 0"/><path d="m301 505.027344c3.894531-1.894532 69.347656-53.027344 166-53.027344 8.289062 0 15-7.710938 15-16v-30c-33.089844 0-60-26.910156-60-60v-30c0-33.089844 26.910156-60 60-60v-60c0-8.289062-6.710938-15-15-15-58.683594 0-116.367188 16.824219-166 47.800781zm0 0"/><path d="m91 316v30c0 33.089844-26.910156 60-60 60v30c0 8.289062 6.710938 16 15 16 97.902344 0 160.023438 50.609375 165 53.027344v-276.226563c-49.632812-30.976562-106.316406-47.800781-165-47.800781-8.289062 0-15 6.710938-15 15v60c33.089844 0 60 26.910156 60 60zm0 0"/></svg>